<mxfile host="Electron" modified="2024-03-19T12:44:23.610Z" agent="Mozilla/5.0 (Macintosh; Intel Mac OS X 10_15_7) AppleWebKit/537.36 (KHTML, like Gecko) draw.io/24.0.4 Chrome/120.0.6099.109 Electron/28.1.0 Safari/537.36" etag="7WZKE7TusZsIL-0Lefqe" version="24.0.4" type="device">
  <diagram name="페이지-1" id="GrwD5MlL6S6xPdxeIMRi">
    <mxGraphModel dx="1234" dy="1119" grid="1" gridSize="10" guides="1" tooltips="1" connect="1" arrows="1" fold="1" page="1" pageScale="1" pageWidth="3300" pageHeight="4681" math="0" shadow="0">
      <root>
        <mxCell id="0" />
        <mxCell id="1" parent="0" />
        <mxCell id="GHMsZiSqVrP85BXOVeuB-1" value="MainViewController" style="rounded=0;whiteSpace=wrap;html=1;" vertex="1" parent="1">
          <mxGeometry x="620" y="420" width="170" height="80" as="geometry" />
        </mxCell>
        <mxCell id="GHMsZiSqVrP85BXOVeuB-3" value="TableViewController" style="rounded=0;whiteSpace=wrap;html=1;" vertex="1" parent="1">
          <mxGeometry x="910" y="420" width="170" height="80" as="geometry" />
        </mxCell>
        <mxCell id="GHMsZiSqVrP85BXOVeuB-4" value="" style="endArrow=classic;html=1;rounded=0;entryX=0;entryY=0.5;entryDx=0;entryDy=0;" edge="1" parent="1" target="GHMsZiSqVrP85BXOVeuB-3">
          <mxGeometry width="50" height="50" relative="1" as="geometry">
            <mxPoint x="790" y="460" as="sourcePoint" />
            <mxPoint x="840" y="410" as="targetPoint" />
          </mxGeometry>
        </mxCell>
        <mxCell id="GHMsZiSqVrP85BXOVeuB-6" value="" style="shape=flexArrow;endArrow=classic;html=1;rounded=0;" edge="1" parent="1" target="GHMsZiSqVrP85BXOVeuB-7">
          <mxGeometry width="50" height="50" relative="1" as="geometry">
            <mxPoint x="670" y="500" as="sourcePoint" />
            <mxPoint x="670" y="610" as="targetPoint" />
          </mxGeometry>
        </mxCell>
        <mxCell id="GHMsZiSqVrP85BXOVeuB-7" value="Feature" style="swimlane;fontStyle=0;childLayout=stackLayout;horizontal=1;startSize=30;horizontalStack=0;resizeParent=1;resizeParentMax=0;resizeLast=0;collapsible=1;marginBottom=0;whiteSpace=wrap;html=1;" vertex="1" parent="1">
          <mxGeometry x="600" y="590" width="140" height="90" as="geometry" />
        </mxCell>
        <mxCell id="GHMsZiSqVrP85BXOVeuB-8" value="UILabel" style="text;strokeColor=none;fillColor=none;align=left;verticalAlign=middle;spacingLeft=4;spacingRight=4;overflow=hidden;points=[[0,0.5],[1,0.5]];portConstraint=eastwest;rotatable=0;whiteSpace=wrap;html=1;" vertex="1" parent="GHMsZiSqVrP85BXOVeuB-7">
          <mxGeometry y="30" width="140" height="30" as="geometry" />
        </mxCell>
        <mxCell id="GHMsZiSqVrP85BXOVeuB-9" value="UIButton" style="text;strokeColor=none;fillColor=none;align=left;verticalAlign=middle;spacingLeft=4;spacingRight=4;overflow=hidden;points=[[0,0.5],[1,0.5]];portConstraint=eastwest;rotatable=0;whiteSpace=wrap;html=1;" vertex="1" parent="GHMsZiSqVrP85BXOVeuB-7">
          <mxGeometry y="60" width="140" height="30" as="geometry" />
        </mxCell>
        <mxCell id="GHMsZiSqVrP85BXOVeuB-11" value="" style="shape=flexArrow;endArrow=classic;html=1;rounded=0;" edge="1" parent="1">
          <mxGeometry width="50" height="50" relative="1" as="geometry">
            <mxPoint x="1000" y="500" as="sourcePoint" />
            <mxPoint x="1000" y="590" as="targetPoint" />
          </mxGeometry>
        </mxCell>
        <mxCell id="GHMsZiSqVrP85BXOVeuB-12" value="Feature" style="swimlane;fontStyle=0;childLayout=stackLayout;horizontal=1;startSize=30;horizontalStack=0;resizeParent=1;resizeParentMax=0;resizeLast=0;collapsible=1;marginBottom=0;whiteSpace=wrap;html=1;" vertex="1" parent="1">
          <mxGeometry x="930" y="590" width="140" height="120" as="geometry" />
        </mxCell>
        <mxCell id="GHMsZiSqVrP85BXOVeuB-13" value="UITableView" style="text;strokeColor=none;fillColor=none;align=left;verticalAlign=middle;spacingLeft=4;spacingRight=4;overflow=hidden;points=[[0,0.5],[1,0.5]];portConstraint=eastwest;rotatable=0;whiteSpace=wrap;html=1;" vertex="1" parent="GHMsZiSqVrP85BXOVeuB-12">
          <mxGeometry y="30" width="140" height="30" as="geometry" />
        </mxCell>
        <mxCell id="GHMsZiSqVrP85BXOVeuB-14" value="UIButton (Add)" style="text;strokeColor=none;fillColor=none;align=left;verticalAlign=middle;spacingLeft=4;spacingRight=4;overflow=hidden;points=[[0,0.5],[1,0.5]];portConstraint=eastwest;rotatable=0;whiteSpace=wrap;html=1;" vertex="1" parent="GHMsZiSqVrP85BXOVeuB-12">
          <mxGeometry y="60" width="140" height="30" as="geometry" />
        </mxCell>
        <mxCell id="GHMsZiSqVrP85BXOVeuB-15" value="UISwitch" style="text;strokeColor=none;fillColor=none;align=left;verticalAlign=middle;spacingLeft=4;spacingRight=4;overflow=hidden;points=[[0,0.5],[1,0.5]];portConstraint=eastwest;rotatable=0;whiteSpace=wrap;html=1;" vertex="1" parent="GHMsZiSqVrP85BXOVeuB-12">
          <mxGeometry y="90" width="140" height="30" as="geometry" />
        </mxCell>
      </root>
    </mxGraphModel>
  </diagram>
</mxfile>
